# xmcd CD database file
#
# Track frame offsets:
#	150
#	38581
#	51023
#	63202
#	74240
#	88814
#	106094
#	117737
#	137992
#	152332
#	168364
#	181506
#	194197
#	209341
#	225332
#
# Disc length: 3214 seconds
#
# Revision: 0
# Processed by: cddbd v1.5.2PL0 Copyright (c) Steve Scherf et al.
# Submitted via: CDex 1.70beta2
#
DISCID=d00c8c0f
DTITLE=Willie Nelson - The Music Of Willie Nelson CD 2
DYEAR=2009
DGENRE=Country
TTITLE0=Medley: Funny How Time Slips Away - Crazy - Night Life
TTITLE1=It Should Be Easier Now
TTITLE2=You Ought To Hear Me Cry
TTITLE3=The Party's Over
TTITLE4=Yesterday"s Wine
TTITLE5=Me And Paul
TTITLE6=On The Road Again
TTITLE7=Angel Flying To Close To The Groun
TTITLE8=Why Do I Have To Choose
TTITLE9=Who'll Buy My Memories
TTITLE10=My Own Peculiar Way
TTITLE11=Forgiving You Was Easy
TTITLE12=I'm Not Trying To Forget You
TTITLE13=Is The Better Part Over
TTITLE14=Still Is Still Moving To Me
EXTD=YEAR: 2009
EXTT0=
EXTT1=
EXTT2=
EXTT3=
EXTT4=
EXTT5=
EXTT6=
EXTT7=
EXTT8=
EXTT9=
EXTT10=
EXTT11=
EXTT12=
EXTT13=
EXTT14=
PLAYORDER=
